<?xml version="1.0" encoding="utf-8"?>
<!-- Generator: Adobe Illustrator 26.0.3, SVG Export Plug-In . SVG Version: 6.00 Build 0)  -->
<svg version="1.1" id="Layer_1" xmlns="http://www.w3.org/2000/svg" xmlns:xlink="http://www.w3.org/1999/xlink" x="0px" y="0px"
	 viewBox="0 0 595.3 841.9" style="enable-background:new 0 0 595.3 841.9;" xml:space="preserve">
<style type="text/css">
	.st0{display:none;fill:#284F9E;}
	.st1{fill:#20386C;}
	.st2{fill:#1F386B;stroke:#FFFFFF;stroke-miterlimit:10;}
	.st3{fill:#FFFFFF;}
	.st4{fill:#FFFFFF;stroke:#FFFFFF;stroke-miterlimit:10;}
	.st5{display:none;fill:none;stroke:#010202;stroke-miterlimit:10;}
	.st6{fill:#2C61AB;}
	.st7{fill:none;stroke:#FFFFFF;stroke-width:0.5;stroke-miterlimit:10;}
	.st8{display:none;}
	.st9{fill:none;stroke:#DADADA;stroke-miterlimit:10;}
	.st10{fill:#BA1C1C;}
	.st11{fill:#E30616;}
	.st12{fill:#AA1816;}
	.st13{fill:#AA1917;}
</style>
<path class="st0" d="M905.8,720.9L905.8,720.9c-122.7,0-222.2-99.5-222.2-222.2V366.9c0-122.7,99.5-222.2,222.2-222.2h0
	c122.7,0,222.2,99.5,222.2,222.2v131.8C1128,621.4,1028.5,720.9,905.8,720.9z"/>
<g>
	<path class="st1" d="M296.4,685.3c-57.2,0-111-22.3-151.5-62.7c-40.5-40.5-62.7-94.2-62.7-151.5V339.3c0-57.2,22.3-111,62.7-151.5
		c40.5-40.5,94.2-62.7,151.5-62.7s111,22.3,151.5,62.7s62.7,94.2,62.7,151.5v131.8c0,57.2-22.3,111-62.7,151.5
		S353.6,685.3,296.4,685.3z"/>
	<path class="st2" d="M296.4,682.3c-56.4,0-109.4-22-149.3-61.9c-39.9-39.9-61.9-92.9-61.9-149.3V339.3c0-56.4,22-109.4,61.9-149.3
		c39.9-39.9,92.9-61.9,149.3-61.9c56.4,0,109.4,22,149.3,61.9c39.9,39.9,61.9,92.9,61.9,149.3v131.8c0,56.4-22,109.4-61.9,149.3
		S352.8,682.3,296.4,682.3z"/>
	<path class="st3" d="M296.4,685.5c-57.3,0-111.1-22.3-151.6-62.8C104.3,582.2,82,528.4,82,471.1V339.3
		c0-57.3,22.3-111.1,62.8-151.6c40.5-40.5,94.4-62.8,151.6-62.8c57.3,0,111.1,22.3,151.6,62.8c40.5,40.5,62.8,94.4,62.8,151.6v131.8
		c0,57.3-22.3,111.1-62.8,151.6C407.5,663.2,353.7,685.5,296.4,685.5z M296.4,125.4c-57.1,0-110.9,22.3-151.3,62.7
		c-40.4,40.4-62.7,94.1-62.7,151.3v131.8c0,57.1,22.3,110.9,62.7,151.3c40.4,40.4,94.1,62.7,151.3,62.7
		c57.1,0,110.9-22.3,151.3-62.7s62.7-94.1,62.7-151.3V339.3c0-57.1-22.3-110.9-62.7-151.3S353.5,125.4,296.4,125.4z"/>
	<path class="st4" d="M296.4,685.5c-57.3,0-111.1-22.3-151.6-62.8C104.3,582.2,82,528.4,82,471.1V339.3
		c0-57.3,22.3-111.1,62.8-151.6c40.5-40.5,94.4-62.8,151.6-62.8c57.3,0,111.1,22.3,151.6,62.8c40.5,40.5,62.8,94.4,62.8,151.6v131.8
		c0,57.3-22.3,111.1-62.8,151.6C407.5,663.2,353.7,685.5,296.4,685.5z M296.4,125.4c-57.1,0-110.9,22.3-151.3,62.7
		c-40.4,40.4-62.7,94.1-62.7,151.3v131.8c0,57.1,22.3,110.9,62.7,151.3c40.4,40.4,94.1,62.7,151.3,62.7
		c57.1,0,110.9-22.3,151.3-62.7s62.7-94.1,62.7-151.3V339.3c0-57.1-22.3-110.9-62.7-151.3S353.5,125.4,296.4,125.4z"/>
</g>
<g>
	
		<image style="overflow:visible;" width="3258" height="2470" xlink:href="21A257D105FA70B1.png"  transform="matrix(0.24 0 0 0.24 -92.16 120)">
	</image>
	<g>
		<g>
			<path class="st5" d="M86.3,527.2c0,0,77.3-103.9,419.6-137.7"/>
			<path class="st6" d="M57.9,326.4c0,0,251.1-104.2,470-25.2v86.3c0,0-354.6,14.4-470,168.9V326.4z"/>
			<g>
				
					<image style="overflow:visible;" width="2236" height="1442" xlink:href="21A257D105FA70B3.png"  transform="matrix(0.24 0 0 0.24 24.48 238.32)">
				</image>
			</g>
			<path class="st7" d="M57.4,557.9V326.1l0.3-0.1c0.6-0.3,63.9-26.3,153-42.3c52.4-9.4,103.3-13.6,151.4-12.4
				c60.1,1.5,115.9,11.4,165.9,29.5l0.3,0.1V388l-0.5,0c-0.9,0-89.8,3.9-191.7,26.5c-59.8,13.3-112.3,30.4-156,50.8
				c-54.6,25.5-95.6,56.2-121.9,91.4L57.4,557.9z M58.4,326.8v228.1c26.4-34.8,67.2-65.3,121.4-90.6c43.8-20.4,96.4-37.5,156.2-50.9
				c98.1-21.8,184.1-26.2,191.3-26.5v-85.4c-49.8-17.9-105.4-27.8-165.3-29.3c-48-1.2-98.9,3-151.2,12.3
				C125,300.1,63.3,324.8,58.4,326.8z"/>
			<g class="st8">
				
					<image style="display:inline;overflow:visible;" width="2266" height="1502" xlink:href="21A257D105FA70B6.png"  transform="matrix(0.24 0 0 0.24 20.88 234.72)">
				</image>
			</g>
			<g>
				
					<image style="overflow:visible;opacity:0.87;" width="2083" height="912" xlink:href="21A257D105FA70B7.png"  transform="matrix(0.24 0 0 0.24 45.72 348.84)">
				</image>
				<g>
					<path class="st9" d="M87.1,527.8l-1.6-1.3c0.2-0.3,20.2-26.5,81.8-56.5c102.8-50,240.8-72,338.5-81.6l0.2,2.1
						c-97.4,9.6-235.1,31.5-337.6,81.3C107.1,501.6,87.3,527.6,87.1,527.8z"/>
				</g>
			</g>
		</g>
	</g>
</g>
<g>
	<g>
		<path class="st10" d="M161.7,359.3c2.8,19,4.7,38.8,10.3,57.3c0.1,0.2-0.2,0.5-0.5,0.6c-6.4,2.5-9.6,3.7-16.2,6.3
			c-1.8,0.7-3.5,0.4-3.8-0.8c-2.2-9.8-3.3-19.8-4.5-29.8c-0.4-3.4-4.9-2.4-5.4,1.2c-1.6,12.2-3.1,24.4-5.4,36.6
			c0,0.2-0.3,0.4-0.6,0.5c-6.4,2.6-9.6,3.9-15.9,6.5c-1.1,0.5-2.2,0.4-2.6-0.2c-5.2-9-7.7-19.2-10.5-29.1c-0.9-3.4-5.4-1-5.3,2.9
			c0.3,11,0.4,22.1,1.4,33.1c0,0.2-0.2,0.5-0.6,0.7c-6.6,2.8-9.8,4.2-15.8,6.8c-1,0.4-1.8,0.2-1.9-0.6c-1.5-27.5-0.5-55.2-0.2-82.8
			l0,0c0-2.8,1.6-5.6,3.7-6.4c17.3-7.3,34.6-14.4,52-21.3c0.9-0.3-16.3,12.1-22.2,16.3c-3.5,2.4-5.4,7.7-4.3,12.1
			c2.6,10.4,3.9,16.1,6.9,26.4c1,3.6,5.7,1.8,6.3-2.3c1.8-12.7,3.6-25.4,5.2-38.2c0,0-0.4-3.7,6.4-7.9c14-8.8,29.2-15.2,44.9-19.5
			c47.6-13.3,147-28,147-28c0,0-55.6,10.9-81.7,21.1c-27,7-53,15.9-78.9,26.3c0,0,0,0,0,0C169.6,346.9,161.3,350.9,161.7,359.3
			C161.7,359.3,161.7,359.3,161.7,359.3z"/>
		<path class="st10" d="M228.4,391.7c-4.6,1.7-7.2,2.6-13.1,4.8c0,0,0,0,0,0c0,0,0-0.1,0-0.1c-0.6-2.1-3.7-2.3-5.2-0.3
			c-0.6,0.8-1.3,1.6-2,2.2c-2.1,2-5.1,3.7-9,5.1c-5.2,2-9.9,2.5-13.8,1.1c-3.9-1.4-6.5-5-7.9-11.7c-1.9-9.7-3.6-19.6-5.2-29.4
			c-0.5-3.2,1.3-6.5,4.2-7.4c5.4-1.6,8.1-2.4,13.3-3.9c0.3-0.1,0.6,0.1,0.6,0.4c1.8,9.6,3.6,19.3,5.7,28.9c0.7,3.2,1.7,5.1,3.1,6
			c1.4,0.9,3.1,0.9,5.1,0.2c2.1-0.8,3.6-2.2,4.6-4.3c0.9-2.1,0.9-5.4,0-10c-1.9-9.6-2.8-14.8-4.7-24.7c-0.1-0.3,0.1-0.6,0.4-0.7
			c6.7-1.8,10-2.6,16.3-4.1c0.3-0.1,0.5,0.1,0.5,0.4c2.2,15.6,4.2,31.3,7.5,46.7C228.7,391.4,228.6,391.6,228.4,391.7z"/>
		<path class="st10" d="M233.8,377.4c3.9-1.8,10.4-4.2,17.2-6.7c0,0,0,0,0,0c1.1,1.8,2.4,2.8,4,3.2c1.6,0.4,3.6,0.2,6.1-0.5
			c2.7-0.7,4.7-1.7,6-3c1-1,1.5-1.9,1.4-2.9c-0.1-1.2-1-1.9-2.6-2.2c-1.1-0.2-4-0.1-8.8,0.4c-7.1,0.8-12.1,1.2-15,1.1
			c-2.9-0.1-5.4-1-7.5-2.8c-2.1-1.8-3.1-4.3-3.4-7.4c-0.3-3.4,0.2-6.5,2.1-9.4c1.8-2.9,4.5-5.4,8-7.3c3.5-1.9,8.2-3.5,14-4.5
			c6.2-1.1,10.8-1.4,13.8-1.1c3,0.4,5.5,1.3,7.6,2.7c2,1.3,3.7,3.2,5.2,5.7c0.2,0.3,0,0.6-0.4,0.7c-7,1.8-10.5,2.8-17.7,4.9
			c0,0,0,0,0,0c-0.6-1.4-1.6-2.4-2.8-2.8c-1.6-0.6-3.6-0.7-5.8-0.3c-2.3,0.5-3.9,1.2-4.8,2.2c-1,1-1.4,2-1.3,3.1
			c0.1,1.2,0.9,1.9,2.2,2.2c1.4,0.3,4.3,0.2,8.7-0.4c6.7-0.8,11.6-0.8,14.9-0.3c3.3,0.5,5.9,1.7,7.8,3.4c1.9,1.7,3,3.8,3.3,6.1
			c0.3,2.4-0.3,4.8-1.8,7.2c-1.5,2.5-4,4.7-7.6,6.8c-3.6,2.1-8.8,4-15.5,6c-9.5,2.8-16.7,4.3-21.2,3.7
			C235.5,384.7,235,381.5,233.8,377.4C233.8,377.4,233.8,377.4,233.8,377.4z"/>
		<path class="st10" d="M315.3,368.8c-7.1,1.1-10.7,1.8-18,3.2c-0.3,0.1-0.5-0.1-0.6-0.3c-1-14.7-1.6-29.5-2.2-44.3
			c0-0.2-0.2-2.2,0.1-2.3c7.5-0.8,11.2-1.1,18.6-1.8c0.3,0,0.6,0.2,0.6,0.4c-0.5,4.1-0.7,6.3-1.1,10.6c0,2.6,3.9,3.6,5.6,1.4
			c2.7-3.3,4-4.9,6.6-8.1c0.1-0.1,0.2-0.2,0.4-0.2c8.6-0.7,12.8-1,21.2-1.7c0.4,0,0.7,0.4,0.4,0.6c-5,6.2-7.5,9.4-12.5,15.8
			c-1.5,2-1.4,4.5,0.4,6.2c6.8,6.4,10.2,9.4,16.8,14.9c0.3,0.2,0.1,0.6-0.3,0.6c-7.5,0.8-11.3,1.2-18.9,2.2c-0.2,0-0.3,0-0.4-0.1
			c-4.8-3.5-7.2-5.4-12-9.3c-1.9-1.5-5.3-0.1-5.1,2.1c0.3,4,0.5,5.9,0.8,9.4C315.8,368.5,315.6,368.7,315.3,368.8z"/>
		<path class="st10" d="M350.6,345.6c-0.6-5.9,1.4-11.2,5.9-15.5c4.5-4.3,10.8-6.6,19-7.2c9.4-0.7,16.4,1,21.2,5.2
			c3.8,3.3,5.8,7.5,6.1,12.6c0.3,5.7-1.5,10.6-5.6,14.5c-4.1,4-10.1,6.3-18.4,7c-7.4,0.7-13.5-0.2-18.3-2.6
			C354.6,356.6,351.2,352,350.6,345.6z M368.5,343.9c0.3,3.4,1.4,5.8,3.2,7.2c1.8,1.4,4,2,6.5,1.8c2.5-0.2,4.6-1.2,6-2.9
			c1.5-1.7,2.1-4.3,1.8-7.8c-0.3-3.3-1.3-5.7-3-7.2s-3.9-2.1-6.4-1.9c-2.6,0.2-4.7,1.2-6.2,3S368.2,340.5,368.5,343.9z"/>
		<path class="st10" d="M426.6,356.8c-5.7,0.6-8.6,0.9-14.6,1.5c-0.2,0-0.4-0.1-0.4-0.3c-0.2-13.8,0.1-27.6,0.3-41.4
			c0-0.2,0.2-0.4,0.4-0.4c6-0.1,8.9-0.2,14.8-0.2c0.3,0,0.5,0.2,0.4,0.4c-0.2,3.9-0.4,5.8-0.6,9.7c-0.2,2.2,3,3.3,4.6,1.5
			c2.5-2.6,3.8-3.9,6.4-6.3c0.1-0.1,0.2-0.1,0.3-0.1c7.3,0,11,0,18.4,0.1c0.3,0,0.5,0.3,0.3,0.5c-5.1,5.4-7.5,8.2-12.2,14
			c-1.2,1.4-1.2,3.3-0.1,4.6c4.6,5.4,6.8,8,11.5,13.2c0.2,0.2,0,0.6-0.3,0.6c-6.2,0.5-9.3,0.7-15.4,1.3c-0.1,0-0.2,0-0.3-0.1
			c-2.8-3.1-4.2-4.7-7-7.9c-1.5-1.8-4.9-0.8-5.2,1.6c-0.4,3-0.6,4.5-0.9,7.4C426.9,356.6,426.8,356.8,426.6,356.8z"/>
		<path class="st10" d="M490.1,352.9c0-1-0.1-1.5-0.1-2.4l0,0c-0.3-0.9-1.7-1.2-2.7-0.6c-1.5,0.9-2.9,1.6-4.3,2.1
			c-2.8,1-6.1,1.6-9.6,1.8c-4.8,0.2-8.3-0.4-10.7-2.1c-2.4-1.7-3.5-3.9-3.4-6.5c0.1-2.5,1.1-4.6,3-6.2c1.9-1.7,5.3-2.9,10.3-3.8
			c6-1,10.1-1.7,11.9-2.1c0.7-0.1,1.1-0.2,1.9-0.4c0,0,0,0,0,0c8.6-1,3.3-4,3.3-4c-0.8-0.6-2.2-0.8-4.3-0.8c-2.7,0-4.8,0.3-6.2,0.9
			c-1.1,0.5-2,1.4-2.8,2.7c0,0,0,0,0,0c-5.9-0.4-8.7-0.6-14.5-1c-0.3,0-0.4-0.2-0.3-0.4c0.7-1.9,1.6-3.4,2.7-4.5
			c1.2-1.2,2.8-2.2,5-3c1.5-0.6,3.6-1,6.3-1.3c2.7-0.3,5.5-0.4,8.6-0.4c5,0.1,9.1,0.3,12.2,0.7c3.1,0.4,5.6,1.2,7.5,2.4
			c1.4,0.8,2.3,2,2.9,3.5c0.6,1.5,0.8,3,0.5,4.4c-0.9,5.2-1.4,7.8-2,13.4c-0.3,2.7-0.4,4.1-0.5,6.9v0
			C498.8,352.4,495.9,352.5,490.1,352.9z M482.6,339.1c-3.3,0.7-5.4,1.4-6.3,2.1c-0.9,0.7-1.4,1.4-1.5,2.3c-0.1,1,0.3,1.7,1.1,2.3
			c0.8,0.6,2.1,0.8,3.7,0.8c1.8-0.1,3.4-0.5,5-1.2c1.6-0.7,3.2-1.4,3.5-2.5C489.4,338.3,482.6,339.1,482.6,339.1z"/>
	</g>
</g>
<g>
	<g>
		<path class="st3" d="M165.8,364.6c2.8,19.5,4.7,39.7,10.4,58.6c0.1,0.2-0.2,0.5-0.5,0.6c-7.4,2.9-11.1,4.3-18.8,7.3
			c-0.3,0.1-0.7,0.1-0.7-0.1c-2.5-10.6-3.6-21.5-5-32.4c-0.4-3.5-4.9-2.5-5.3,1.2c-1.5,12.5-3.1,25-5.2,37.5c0,0.2-0.3,0.4-0.5,0.5
			c-7,2.8-10.4,4.2-17.2,7c-0.3,0.1-0.5,0.1-0.6-0.1c-5.6-9.4-8.1-20.4-11-30.8c-0.9-3.5-5.3-1.1-5.2,2.8c0.3,11.3,0.4,22.7,1.4,34
			c0,0.2-0.2,0.5-0.5,0.7c-7.1,3-10.5,4.5-17,7.3c-0.3,0.1-0.5,0-0.6-0.2c-1.7-28.4-0.6-57-0.2-85.4c0-0.4-0.2-4.9,0.1-4.9
			c18.2-7.7,36.5-15.3,54.9-22.5c0.9-0.2-16.1,12-21.9,16.2c-3.4,2.4-5.3,7.7-4.2,12.2c2.6,10.6,3.9,16.4,6.8,27
			c1,3.7,5.7,1.9,6.3-2.3c1.8-12.9,3.5-25.9,5.1-38.8c0,0-0.2-4.3,6.3-7.9c63-34.7,222.5-48,222.5-48c0,0-76.8,10-113.3,22
			c-26.8,6.9-52.6,15.8-78.2,26.2C173.6,352.1,165.4,356,165.8,364.6z"/>
		<path class="st3" d="M234.9,399.4c-4.3,1.6-6.9,2.5-12.5,4.6c0,0,0,0,0,0c0,0,0-0.1,0-0.1c-0.6-2-3.6-2.2-5.1-0.3
			c-0.6,0.8-1.3,1.5-2,2.2c-2.1,1.9-4.9,3.6-8.7,5c-5.1,1.9-9.7,2.5-13.6,1.2c-3.9-1.3-6.6-4.9-7.9-11.6
			c-2.4-11.6-4.3-23.3-6.3-34.9c-0.1-0.3,0.1-0.7,0.4-0.8c7.2-2.2,10.8-3.3,17.7-5.3c0.3-0.1,0.6,0.1,0.6,0.4
			c1.8,9.8,3.7,19.6,5.8,29.3c0.7,3.2,1.8,5.2,3.2,6c1.4,0.9,3.1,0.9,5,0.2c2.1-0.7,3.5-2.1,4.4-4.2c0.9-2.1,0.8-5.3-0.1-10
			c-1.9-9.6-2.9-15-4.7-25.1c-0.1-0.3,0.1-0.6,0.4-0.7c6.6-1.8,9.8-2.6,16-4.1c0.3-0.1,0.5,0.1,0.5,0.5c2.1,15.7,4,31.6,7.3,47.1
			C235.2,399.1,235.1,399.3,234.9,399.4z"/>
		<path class="st3" d="M240.9,385c6.9-2.9,10.4-4.2,17.1-6.7c0,0,0,0,0,0c1.1,1.8,2.4,2.8,4,3.2c1.6,0.4,3.6,0.2,6-0.4
			c2.7-0.7,4.6-1.7,6-3c1-0.9,1.5-1.9,1.4-2.9c-0.1-1.2-1-1.9-2.6-2.2c-1.1-0.2-4-0.1-8.7,0.4c-7,0.8-12,1.2-14.9,1.1
			c-2.9-0.1-5.4-1-7.5-2.8c-2.1-1.8-3.3-4.2-3.6-7.4c-0.3-3.4,0.5-6.7,2.3-9.6c1.8-3,4.5-5.4,7.9-7.4c3.4-1.9,8.1-3.5,13.9-4.5
			c6.2-1.1,10.7-1.4,13.7-1c3,0.4,5.5,1.3,7.6,2.8c2,1.4,3.7,3.3,5.2,5.8c0.2,0.3,0,0.6-0.4,0.7c-6.9,1.8-10.4,2.8-17.5,4.9
			c0,0,0,0,0,0c-0.6-1.4-1.6-2.4-2.8-2.9c-1.6-0.7-3.6-0.8-5.8-0.3c-2.2,0.5-3.8,1.2-4.8,2.2c-1,1-1.4,2-1.3,3.1
			c0.1,1.2,0.9,2,2.2,2.3c1.4,0.3,4.3,0.2,8.7-0.3c6.6-0.8,11.5-0.8,14.8-0.2c3.3,0.5,5.8,1.7,7.7,3.5c1.9,1.8,3,3.8,3.3,6.2
			c0.3,2.4-0.3,4.8-1.7,7.2c-1.4,2.5-3.9,4.6-7.5,6.7c-3.6,2.1-8.7,3.9-15.4,5.9c-9.4,2.7-16.6,4.2-21,3.7
			C242.6,392.2,242.5,388.9,240.9,385C240.9,385,240.9,385,240.9,385z"/>
		<path class="st3" d="M321.7,376.5c-7,1.1-10.6,1.7-17.8,3.2c-0.3,0.1-0.5-0.1-0.6-0.3c-1.1-14.9-1.7-29.8-2.4-44.8
			c0-0.2-0.2-2.3,0.1-2.3c7.5-0.8,11.1-1.1,18.5-1.8c0.3,0,0.6,0.2,0.6,0.4c-0.4,4.2-0.7,6.4-1.1,10.8c0,2.7,3.9,3.6,5.6,1.4
			c2.6-3.3,3.9-5,6.6-8.2c0.1-0.1,0.2-0.2,0.4-0.2c8.5-0.7,12.7-1,21.1-1.7c0.4,0,0.7,0.4,0.4,0.7c-5,6.3-7.5,9.6-12.4,16.1
			c-1.5,2-1.3,4.6,0.4,6.3c6.8,6.5,10.1,9.5,16.8,15.1c0.3,0.2,0.1,0.6-0.3,0.6c-7.5,0.8-11.2,1.2-18.8,2.2c-0.2,0-0.3,0-0.4-0.1
			c-4.7-3.5-7.1-5.4-11.9-9.4c-1.9-1.6-5.3-0.1-5.1,2.1c0.3,4,0.5,5.9,0.9,9.4C322.2,376.3,322,376.5,321.7,376.5z"/>
		<path class="st3" d="M356.6,353.3c-0.6-6,1.3-11.4,5.8-15.8c4.4-4.4,10.8-6.8,18.9-7.4c9.3-0.7,16.3,1.1,21,5.3
			c3.8,3.4,5.8,7.7,6.1,12.9c0.3,5.9-1.4,10.8-5.5,14.8c-4,4-10,6.3-18.2,7c-7.3,0.6-13.4-0.2-18.2-2.7
			C360.6,364.4,357.3,359.8,356.6,353.3z M374.4,351.6c0.3,3.5,1.4,5.9,3.2,7.4c1.8,1.5,3.9,2.1,6.4,1.8c2.5-0.2,4.5-1.2,6-3
			c1.5-1.7,2-4.4,1.8-8c-0.3-3.4-1.3-5.8-3-7.3c-1.8-1.5-3.9-2.2-6.3-2c-2.6,0.2-4.6,1.3-6.2,3.1
			C374.7,345.5,374.1,348.2,374.4,351.6z"/>
		<path class="st3" d="M432,364.8c-5.7,0.6-8.6,0.9-14.5,1.5c-0.2,0-0.4-0.1-0.4-0.4c-0.2-14.1,0-28.1,0.2-42.2
			c0-0.2,0.2-0.4,0.4-0.4c5.9-0.1,8.9-0.2,14.7-0.2c0.3,0,0.5,0.2,0.4,0.4c-0.2,3.9-0.4,5.9-0.6,9.9c-0.2,2.3,2.9,3.3,4.6,1.6
			c2.5-2.6,3.8-3.9,6.3-6.5c0.1-0.1,0.2-0.1,0.3-0.1c7.3,0,10.9,0,18.2,0c0.3,0,0.5,0.3,0.3,0.5c-5,5.5-7.5,8.4-12.1,14.3
			c-1.2,1.5-1.2,3.4-0.1,4.7c4.6,5.5,6.8,8.1,11.5,13.5c0.2,0.2,0,0.6-0.3,0.6c-6.2,0.5-9.2,0.8-15.3,1.3c-0.1,0-0.2,0-0.3-0.1
			c-2.8-3.2-4.2-4.8-6.9-8.1c-1.5-1.8-4.8-0.8-5.1,1.6c-0.4,3-0.6,4.6-0.9,7.6C432.3,364.6,432.2,364.8,432,364.8z"/>
		<path class="st3" d="M495,360.9c-0.1-1-0.1-1.5-0.1-2.5l0,0c-0.3-0.9-1.7-1.2-2.6-0.6c-1.4,0.9-2.8,1.7-4.2,2.2
			c-2.8,1.1-6,1.7-9.6,1.8c-4.7,0.2-8.2-0.5-10.6-2.2c-2.4-1.7-3.5-4-3.4-6.7c0.1-2.6,1.1-4.7,2.9-6.4c1.9-1.7,5.2-3,10.2-3.9
			c5.9-1.1,10-1.8,11.8-2.1c0.7-0.2,1.1-0.2,1.8-0.4c0,0,0,0,0,0c8.6-1.1,3.3-4.1,3.3-4.1c-0.8-0.6-2.2-0.9-4.3-0.9
			c-2.7,0-4.7,0.3-6.1,1c-1.1,0.5-2,1.4-2.8,2.8c0,0,0,0,0,0c-5.8-0.4-8.7-0.6-14.3-1c-0.2,0-0.4-0.2-0.3-0.4
			c0.7-1.9,1.6-3.5,2.7-4.6c1.2-1.2,2.8-2.2,4.9-3.1c1.5-0.6,3.6-1.1,6.2-1.4c2.6-0.3,5.5-0.4,8.6-0.4c5,0.1,9,0.3,12.1,0.7
			c3.1,0.4,5.6,1.2,7.5,2.5c1.3,0.9,2.3,2.1,2.9,3.6c0.6,1.6,0.7,3,0.5,4.5c-1,5.3-1.4,8-1.9,13.8c-0.2,2.8-0.3,4.2-0.4,7.1h0
			C503.7,360.4,500.7,360.5,495,360.9z M487.4,346.6c-3.3,0.7-5.4,1.5-6.3,2.2c-0.9,0.7-1.4,1.5-1.5,2.3c-0.1,1,0.3,1.8,1.1,2.4
			c0.8,0.6,2,0.9,3.7,0.8c1.7-0.1,3.4-0.5,5-1.2c1.6-0.7,3.2-1.5,3.5-2.6C494.2,345.9,487.4,346.6,487.4,346.6z"/>
	</g>
</g>
<image style="display:none;overflow:visible;" width="1536" height="2048" xlink:href="21A257D105FA70B1.jpg"  transform="matrix(1 0 0 1 455.5934 -918.6276)">
</image>
<g>
	<g>
		<path class="st3" d="M190.2,219.1c1.7,0,3.1,0.3,4.1,1c0.9,0.7,1.6,1.8,1.6,3.4c0,3.5-3,4.9-5.3,4.9c-0.3,0-0.5,0-0.6,0l-1.7-0.4
			v3.7c0,2,0.2,2.1,2.4,2.3v0.7H184V234c2.1-0.2,2.2-0.4,2.2-2.4v-9.5c0-2.1-0.3-2.2-2.2-2.4v-0.7H190.2z M188.2,227.1
			c0.3,0.1,0.9,0.3,1.8,0.3c1.6,0,3.6-0.8,3.6-3.8c0-2.6-1.7-3.7-3.7-3.7c-0.7,0-1.2,0.1-1.3,0.3c-0.2,0.2-0.3,0.5-0.3,1.1V227.1z"
			/>
		<path class="st3" d="M212,234.9c-0.3,0-0.6,0-0.9,0c-1.8-0.1-2.7-0.6-3.7-2.1c-0.9-1.2-1.8-2.7-2.5-4c-0.5-0.8-0.8-0.9-2-0.9H202
			v3.8c0,2,0.3,2.2,2.2,2.4v0.7h-6.4V234c2-0.2,2.2-0.3,2.2-2.4v-9.6c0-2-0.3-2.1-2.2-2.3v-0.7h6.1c1.8,0,2.9,0.2,3.8,0.8
			c1,0.6,1.6,1.7,1.6,3.2c0,2.1-1.3,3.4-3.1,4.1c0.4,0.7,1.5,2.4,2.2,3.4c0.9,1.3,1.3,1.9,1.9,2.5c0.6,0.7,1.2,1,1.8,1.1L212,234.9z
			 M203.2,227.1c1.2,0,2-0.2,2.6-0.7c0.9-0.7,1.3-1.7,1.3-3c0-2.6-1.7-3.5-3.6-3.5c-0.7,0-1.1,0.1-1.3,0.2c-0.2,0.2-0.3,0.4-0.3,1
			v5.9H203.2z"/>
		<path class="st3" d="M225,230.9c-0.1,0.6-0.8,3.1-1,3.8h-11.7V234c2.2-0.2,2.4-0.4,2.4-2.4v-9.5c0-2.1-0.3-2.3-2.1-2.4v-0.7h7.3
			c2.3,0,3.2,0,3.5,0c0,0.6,0.1,2.4,0.2,3.7l-0.7,0.1c-0.2-0.8-0.5-1.3-0.7-1.8c-0.4-0.8-0.9-1-2.4-1h-2.3c-0.7,0-0.8,0.1-0.8,0.8
			v5.3h2.7c1.8,0,1.9-0.4,2.2-2h0.7v4.9h-0.7c-0.3-1.7-0.5-2-2.2-2h-2.6v4.8c0,1.7,0.5,1.8,1.7,1.8h2.2c1.5,0,1.7-0.2,2.2-0.8
			c0.5-0.5,1-1.5,1.3-2.2L225,230.9z"/>
		<path class="st3" d="M240,234.7V234c2-0.2,2-0.3,2-2.9l0-9.8c-2,4.4-5.1,11.3-6,13.4h-0.6c-0.8-2.2-3.5-8.8-5.4-13.1
			c-0.4,8.4-0.4,10.3-0.4,10.8c0,1.3,0.6,1.5,2.3,1.7v0.7h-5.7V234c1.4-0.1,2-0.4,2.2-1.7c0.1-1.1,0.2-1.9,0.8-10.7
			c0.1-1.2-0.1-1.7-2.3-1.8v-0.7h4.2l5.3,12.2l5.7-12.2h4.2v0.7c-2.1,0.2-2.3,0.5-2.3,2.1l0.1,9.2c0.1,2.6,0.2,2.7,2.3,2.9v0.7H240z
			"/>
		<path class="st3" d="M248.3,234.7V234c2-0.2,2.2-0.3,2.2-2.4v-9.5c0-2.1-0.2-2.2-2.2-2.4v-0.7h6.4v0.7c-2,0.2-2.2,0.3-2.2,2.4v9.5
			c0,2.1,0.2,2.1,2.2,2.4v0.7H248.3z"/>
		<path class="st3" d="M273.3,219.8c-1.5,0.1-2.1,0.5-2.1,1.6c0,0.6-0.1,1.6-0.1,3.8v2.6c0,2.4-0.3,4.3-1.7,5.8
			c-1.1,1.2-2.8,1.5-4.4,1.5c-1.4,0-2.9-0.3-3.9-1.1c-1.4-1.1-2.1-2.8-2.1-5.6v-6.1c0-2.2-0.2-2.3-2.1-2.5v-0.7h6.3v0.7
			c-1.9,0.1-2.1,0.3-2.1,2.5v6c0,3.5,1.7,5.4,4.5,5.4c3.4,0,4.5-2.1,4.5-6.1v-2.4c0-2.2-0.1-3.1-0.1-3.8c-0.1-1.1-0.6-1.5-2.4-1.6
			v-0.7h5.8V219.8z"/>
		<path class="st3" d="M288,234.7V234c2-0.2,2-0.3,2-2.9l0-9.8c-2,4.4-5.1,11.3-6,13.4h-0.6c-0.8-2.2-3.5-8.8-5.4-13.1
			c-0.4,8.4-0.4,10.3-0.4,10.8c0,1.3,0.6,1.5,2.3,1.7v0.7h-5.7V234c1.4-0.1,2-0.4,2.2-1.7c0.1-1.1,0.2-1.9,0.8-10.7
			c0.1-1.2-0.1-1.7-2.3-1.8v-0.7h4.2l5.3,12.2l5.7-12.2h4.2v0.7c-2.1,0.2-2.3,0.5-2.3,2.1l0.1,9.2c0.1,2.6,0.2,2.7,2.3,2.9v0.7H288z
			"/>
		<path class="st3" d="M310.1,218.8c4.1,0,7.8,3.1,7.8,7.9c0,5.2-3.6,8.4-8,8.4c-4.4,0-7.9-3.4-7.9-8
			C301.9,222.7,305,218.8,310.1,218.8z M309.6,219.7c-2.7,0-5.1,2.3-5.1,6.7s2.4,7.8,5.9,7.8c2.7,0,5.1-2.2,5.1-6.8
			C315.4,222.3,312.7,219.7,309.6,219.7z M311.2,233.5c2.5,1.9,5.2,3.6,7.4,4.5l-0.2,0.6c-1.2,0-2.5-0.1-3.2-0.3
			c-1.7-0.5-4.5-2.5-6.4-3.9L311.2,233.5z"/>
		<path class="st3" d="M336.4,219.8c-1.5,0.1-2.1,0.5-2.1,1.6c0,0.6-0.1,1.6-0.1,3.8v2.6c0,2.4-0.3,4.3-1.7,5.8
			c-1.1,1.2-2.8,1.5-4.4,1.5c-1.4,0-2.9-0.3-3.9-1.1c-1.4-1.1-2.1-2.8-2.1-5.6v-6.1c0-2.2-0.2-2.3-2.1-2.5v-0.7h6.3v0.7
			c-1.9,0.1-2.1,0.3-2.1,2.5v6c0,3.5,1.7,5.4,4.5,5.4c3.4,0,4.5-2.1,4.5-6.1v-2.4c0-2.2-0.1-3.1-0.1-3.8c-0.1-1.1-0.6-1.5-2.4-1.6
			v-0.7h5.8V219.8z"/>
		<path class="st3" d="M345.9,234.7V234c1.6-0.2,1.8-0.4,1.4-1.3c-0.3-0.9-0.8-2.1-1.3-3.6h-5.2c-0.4,1.1-0.7,2-1.1,3
			c-0.5,1.6-0.2,1.8,1.8,2v0.7H336V234c1.5-0.2,1.9-0.4,2.7-2.5l5-12.6l0.8-0.1c1.5,4.1,3.2,8.6,4.7,12.8c0.8,2.1,1,2.3,2.7,2.5v0.7
			H345.9z M343.5,221.9c-0.8,2.1-1.6,4.2-2.3,6.1h4.5L343.5,221.9z"/>
		<path class="st3" d="M364.4,230.7c-0.1,0.7-0.9,3.2-1.1,4h-11.2V234c2.2-0.2,2.4-0.3,2.4-2.4v-9.5c0-2-0.2-2.2-2.2-2.4v-0.7h6.4
			v0.7c-1.9,0.2-2.2,0.3-2.2,2.4v9.8c0,1.5,0.2,1.8,1.6,1.8c0,0,1.8,0,1.9,0c1.2,0,1.6-0.1,2.1-0.7c0.6-0.6,1.1-1.6,1.5-2.5
			L364.4,230.7z"/>
		<path class="st3" d="M366,234.7V234c2-0.2,2.2-0.3,2.2-2.4v-9.5c0-2.1-0.2-2.2-2.2-2.4v-0.7h6.4v0.7c-2,0.2-2.2,0.3-2.2,2.4v9.5
			c0,2.1,0.2,2.1,2.2,2.4v0.7H366z"/>
		<path class="st3" d="M387.2,222.9c-0.2-0.8-0.5-1.6-0.8-2c-0.4-0.6-0.6-0.8-1.9-0.8h-2.4v11.7c0,1.9,0.2,2.1,2.5,2.3v0.7h-7V234
			c2.2-0.1,2.4-0.4,2.4-2.3v-11.7h-2.2c-1.3,0-1.7,0.1-2.1,0.9c-0.3,0.5-0.5,1.1-0.8,1.9h-0.7c0.1-1.5,0.3-3,0.4-4.3h0.6
			c0.4,0.6,0.6,0.6,1.3,0.6h9.5c0.7,0,0.9-0.1,1.2-0.6h0.6c0,1.1,0.1,2.9,0.2,4.2L387.2,222.9z"/>
		<path class="st3" d="M402.7,219.8c-1.7,0.2-2,0.5-2.9,2c-1.1,1.8-2,3.4-3.1,5.5c-0.3,0.6-0.4,0.8-0.4,1.4v3c0,2,0.2,2.1,2.4,2.4
			v0.7h-6.9V234c2.2-0.3,2.4-0.3,2.4-2.4v-3.1c0-0.5-0.1-0.7-0.5-1.4c-0.8-1.6-1.7-3.1-3-5.3c-0.9-1.6-1.2-1.9-2.8-2.1v-0.7h5.9v0.7
			c-1.7,0.2-1.6,0.6-1.2,1.4c1,1.8,2.1,4,3.1,5.8c0.9-1.6,2.2-4.2,2.9-5.5c0.6-1.2,0.5-1.4-1.4-1.6v-0.7h5.4V219.8z"/>
	</g>
</g>
<g>
	<path class="st3" d="M184,209.5"/>
	<g>
		<path class="st3" d="M184,210.1c0.8,0,0.8-1.2,0-1.2C183.2,208.8,183.2,210.1,184,210.1L184,210.1z"/>
	</g>
</g>
<g>
	<g>
		<path class="st3" d="M183.2,244.1c2.9,0,5.7,0,8.6,0c7.6,0,15.2,0,22.8,0c10.9,0,21.7,0,32.6,0c12.6,0,25.3,0,37.9,0
			c13,0,25.9,0,38.9,0c11.8,0,23.6,0,35.4,0c9.2,0,18.3,0,27.5,0c5.1,0,10.1,0,15.2,0c0.8,0,1.6,0,2.4-0.1c3.2-0.2,6.6-0.1,9.7,0.5
			c3.7,0.7,9.2,2.4,9.5,6.9c0.3,5.2-6,7.9-10.3,6.4c-2.2-0.8-3.8-2.5-4.3-4.8c-0.4-1.9,0.5-4,2.4-4.7c0.9-0.3,2-0.3,2.9-0.2
			c1.8,0.1,3.6,0.8,4.7,2.3c0.9,1.1,1.8,3.1,0.2,4c-0.9,0.5-2,0.6-3.1,0.6c-0.2,0-0.6,0-0.3,0c-0.4-0.1-0.8-0.2-1.1-0.3
			c-1.5-0.6-2.6-1.6-1.9-3.3c0.3-0.7-0.8-1.4-1.1-0.6c-2.1,5,5.7,7.1,8.7,4.2c2.6-2.5-0.9-6.5-3.3-7.5c-2.2-0.9-5.4-1.1-7.5,0.4
			c-3,2.2-2.4,6.3-0.2,8.9c3.2,3.7,9.8,3.3,13.2,0.1c2.9-2.7,3-7.5,0-10.2c-3.1-2.7-7.6-3.6-11.5-3.9c-4.2-0.4-8.6-0.1-12.9-0.1
			c-7.2,0-14.4,0-21.6,0c-11.1,0-22.2,0-33.2,0c-13.3,0-26.5,0-39.8,0c-13.6,0-27.2,0-40.8,0c-12.4,0-24.8,0-37.2,0
			c-9.3,0-18.6,0-27.9,0c-4.6,0-9.2,0-13.8,0c-0.2,0-0.4,0-0.6,0C182.4,242.8,182.4,244.1,183.2,244.1L183.2,244.1z"/>
	</g>
</g>
<g>
	<g>
		<path class="st3" d="M405.8,238c-3.2,0-6.4,0-9.5,0c-8.3,0-16.7,0-25,0c-11.8,0-23.6,0-35.4,0c-13.5,0-27,0-40.5,0
			c-13.5,0-27,0-40.5,0c-11.8,0-23.6,0-35.4,0c-8.3,0-16.5,0-24.8,0c-3.1,0-6.2,0.1-9.3,0c-2.6-0.1-5.2-0.2-7.9,0.1
			c-3.9,0.4-8.6,1.3-11.4,4.2c-2.8,2.9-2.4,7.8,0.8,10.3c3.5,2.8,9.8,3.1,12.8-0.7c2.3-2.8,2.6-6.9-0.7-9.1c-2-1.3-5.3-0.9-7.3,0
			c-2.4,1.1-5.6,5.1-2.9,7.5c1.2,1.1,3.5,1.4,5.1,1.1c2.7-0.6,4.7-2.7,3.5-5.4c-0.3-0.7-1.4-0.1-1.1,0.6c0.7,1.7-0.5,2.8-2,3.4
			c-0.3,0.1-0.6,0.2-0.9,0.3c0.3-0.1-0.3,0-0.5,0c-1,0-2.2-0.1-3.1-0.7c-1.6-1.1-0.4-3.3,0.6-4.3c1.2-1.3,2.9-1.8,4.6-1.9
			c0.8,0,1.9-0.1,2.7,0.2c2.1,0.8,2.8,3.1,2.2,5.1c-0.7,2.3-2.3,3.8-4.6,4.5c-4.5,1.3-10.7-1.7-9.9-7c0.7-4.4,6.3-5.9,10-6.5
			c3.4-0.6,6.7-0.4,10.2-0.4c3.8,0.1,7.7,0,11.5,0c8.3,0,16.6,0,24.9,0c11.3,0,22.6,0,33.9,0c12.8,0,25.6,0,38.4,0
			c12.9,0,25.7,0,38.6,0c11.4,0,22.8,0,34.3,0c8.5,0,17,0,25.5,0c4.1,0,8.3,0,12.4,0c0.2,0,0.4,0,0.5,0
			C406.6,239.3,406.6,238,405.8,238L405.8,238z"/>
	</g>
</g>
<g>
	<g>
		<path class="st3" d="M185,210c3.2,0,6.4,0,9.5,0c8.3,0,16.7,0,25,0c11.8,0,23.6,0,35.4,0c13.5,0,27,0,40.5,0c13.5,0,27,0,40.5,0
			c11.8,0,23.6,0,35.4,0c8.3,0,16.5,0,24.8,0c3.1,0,6.2-0.1,9.3,0c2.6,0.1,5.2,0.2,7.9-0.1c3.9-0.4,8.6-1.3,11.4-4.2
			c2.8-2.9,2.4-7.8-0.8-10.3c-3.5-2.8-9.8-3.1-12.8,0.7c-2.3,2.8-2.6,6.9,0.7,9.1c2,1.3,5.3,0.9,7.3,0c2.4-1.1,5.6-5.1,2.9-7.5
			c-1.2-1.1-3.5-1.4-5.1-1.1c-2.7,0.6-4.7,2.7-3.5,5.4c0.3,0.7,1.4,0.1,1.1-0.6c-0.7-1.7,0.5-2.8,2-3.4c0.3-0.1,0.6-0.2,0.9-0.3
			c-0.3,0.1,0.3,0,0.5,0c1,0,2.2,0.1,3.1,0.7c1.6,1.1,0.4,3.3-0.6,4.3c-1.2,1.3-2.9,1.8-4.6,1.9c-0.8,0-1.9,0.1-2.7-0.2
			c-2.1-0.8-2.8-3.1-2.2-5.1c0.7-2.3,2.3-3.8,4.6-4.5c4.5-1.3,10.7,1.7,9.9,7c-0.7,4.4-6.3,5.9-10,6.5c-3.4,0.6-6.7,0.4-10.2,0.4
			c-3.8-0.1-7.7,0-11.5,0c-8.3,0-16.6,0-24.9,0c-11.3,0-22.6,0-33.9,0c-12.8,0-25.6,0-38.4,0c-12.9,0-25.7,0-38.6,0
			c-11.4,0-22.8,0-34.3,0c-8.5,0-17,0-25.5,0c-4.1,0-8.3,0-12.4,0c-0.2,0-0.4,0-0.5,0C184.2,208.7,184.2,210,185,210L185,210z"/>
	</g>
</g>
<g>
	<g>
		<path class="st3" d="M403.7,213.8c-2.9,0-5.7,0-8.6,0c-7.6,0-15.2,0-22.8,0c-10.9,0-21.7,0-32.6,0c-12.6,0-25.3,0-37.9,0
			c-13,0-25.9,0-38.9,0c-11.8,0-23.6,0-35.4,0c-9.2,0-18.3,0-27.5,0c-5.1,0-10.1,0-15.2,0c-0.8,0-1.6,0-2.4,0.1
			c-3.2,0.2-6.6,0.1-9.7-0.5c-3.7-0.7-9.2-2.4-9.5-6.9c-0.3-5.2,6-7.9,10.3-6.4c2.2,0.8,3.8,2.5,4.3,4.8c0.4,1.9-0.5,4-2.4,4.7
			c-0.9,0.3-2,0.3-2.9,0.2c-1.8-0.1-3.6-0.8-4.7-2.3c-0.9-1.1-1.8-3.1-0.2-4c0.9-0.5,2-0.6,3.1-0.6c0.2,0,0.6,0,0.3,0
			c0.4,0.1,0.8,0.2,1.1,0.3c1.5,0.6,2.6,1.6,1.9,3.3c-0.3,0.7,0.8,1.4,1.1,0.6c2.1-5-5.7-7.1-8.7-4.2c-2.6,2.5,0.9,6.5,3.3,7.5
			c2.2,0.9,5.4,1.1,7.5-0.4c3-2.2,2.4-6.3,0.2-8.9c-3.2-3.7-9.8-3.3-13.2-0.1c-2.9,2.7-3,7.5,0,10.2c3.1,2.7,7.6,3.6,11.5,3.9
			c4.2,0.4,8.6,0.1,12.9,0.1c7.2,0,14.4,0,21.6,0c11.1,0,22.2,0,33.2,0c13.3,0,26.5,0,39.8,0c13.6,0,27.2,0,40.8,0
			c12.4,0,24.8,0,37.2,0c9.3,0,18.6,0,27.9,0c4.6,0,9.2,0,13.8,0c0.2,0,0.4,0,0.6,0C404.5,215,404.5,213.8,403.7,213.8L403.7,213.8z
			"/>
	</g>
</g>
<g>
	<g>
		<path class="st3" d="M178,573.7v-0.6c2.3-0.1,2.5-0.3,2.5-1.8v-8.1c0-1.1-0.1-1.1-1.1-1.2l-1-0.1v-0.5c1.4-0.2,2.8-0.6,3.8-1v10.9
			c0,1.6,0.1,1.7,2.5,1.8v0.6H178z"/>
		<path class="st3" d="M191.6,560.3c2,0,3.4,1.4,3.4,3.1c0,0.6-0.2,1.2-0.6,1.7c-0.2,0.2-0.8,0.7-1.7,1.3c1.4,0.8,2.9,1.8,2.9,3.6
			c0,2.5-2.2,3.8-4.2,3.8c-2.3,0-4.1-1.3-4.1-3.5c0-1.1,0.5-1.7,1-2.1c0.3-0.3,1.2-0.8,1.9-1.3c-1.4-0.8-2.3-1.8-2.3-3.3
			C187.8,561.9,189.3,560.3,191.6,560.3z M191.6,573.2c1.4,0,2.3-0.9,2.3-2.5c0-1.7-1.4-2.5-3.1-3.3c-1.1,0.7-1.8,1.6-1.8,2.9
			C189,572.2,190.2,573.2,191.6,573.2z M191.3,561c-1.3,0-1.9,1-1.9,2.2c0,1.5,1,2.1,2.7,3c0.8-0.6,1.4-1.4,1.4-2.6
			C193.4,561.8,192.4,561,191.3,561z"/>
		<path class="st3" d="M206.1,560.9c-2,4.3-4,8.5-6,12.8l-1.5,0.1l-0.1-0.2c2.2-3.5,4.5-7.9,6.2-11.5h-4.5c-1.4,0-1.4,0.2-2,1.6
			h-0.7c0.2-1.2,0.3-2.2,0.4-3.1h8.1L206.1,560.9z"/>
		<path class="st3" d="M211.9,560.3c2,0,3.4,1.4,3.4,3.1c0,0.6-0.2,1.2-0.6,1.7c-0.2,0.2-0.8,0.7-1.7,1.3c1.4,0.8,2.9,1.8,2.9,3.6
			c0,2.5-2.2,3.8-4.2,3.8c-2.3,0-4.1-1.3-4.1-3.5c0-1.1,0.5-1.7,1-2.1c0.3-0.3,1.2-0.8,1.9-1.3c-1.4-0.8-2.3-1.8-2.3-3.3
			C208.2,561.9,209.6,560.3,211.9,560.3z M211.9,573.2c1.4,0,2.3-0.9,2.3-2.5c0-1.7-1.4-2.5-3.1-3.3c-1.1,0.7-1.8,1.6-1.8,2.9
			C209.3,572.2,210.5,573.2,211.9,573.2z M211.7,561c-1.3,0-1.9,1-1.9,2.2c0,1.5,1,2.1,2.7,3c0.8-0.6,1.4-1.4,1.4-2.6
			C213.8,561.8,212.8,561,211.7,561z"/>
	</g>
</g>
<rect x="1059.8" y="806.7" style="fill:none;" width="5.6" height="2.3"/>
<g>
	<g>
		<path class="st3" d="M392.7,436.2c0-0.2,0-0.3-0.1-0.5c1.1-0.3,1.2-0.5,0.9-1.1c-0.3-0.6-0.8-1.5-1.3-2.6
			c-1.5,0.2-2.3,0.3-3.9,0.5c-0.2,0.8-0.3,1.6-0.5,2.3c-0.2,1.2,0,1.3,1.5,1.3c0,0.2,0,0.3,0.1,0.5c-1.6,0.2-2.5,0.3-4.1,0.6
			c0-0.2,0-0.3-0.1-0.5c1.1-0.3,1.4-0.5,1.8-2.2c1-4,1.4-5.9,2.4-9.9c0.2-0.1,0.3-0.1,0.6-0.2c1.5,2.9,3.2,6.1,4.8,9
			c0.8,1.5,1,1.6,2.3,1.6c0,0.2,0,0.3,0.1,0.5C395.4,435.9,394.5,436,392.7,436.2z M389.6,427c-0.4,1.6-0.7,3.3-1.1,4.8
			c1.3-0.2,2-0.3,3.3-0.5C391,429.6,390.5,428.7,389.6,427z"/>
		<path class="st3" d="M397.7,435.5c0-0.2,0-0.3-0.1-0.5c1.1-0.3,1.3-0.4,1.1-1.6c-0.5-3.4-0.7-5.1-1.2-8.5
			c-0.2-1.1-0.3-1.2-1.4-1.2c0-0.2,0-0.3-0.1-0.5c0.9-0.2,2-0.7,2.6-1c0.1,0.8,0.2,1.7,0.4,2.5c0.5,3.4,0.7,5.1,1.2,8.4
			c0.2,1.2,0.3,1.3,1.5,1.2c0,0.2,0,0.3,0.1,0.5C400.1,435.2,399.3,435.3,397.7,435.5z"/>
		<path class="st3" d="M409.1,432.3c-0.6,1.1-1.7,2.1-2.8,2.2c-2.3,0.3-3.9-1.3-4.1-3.2c-0.2-1.4,0.3-2.7,1.3-3.7
			c0.8-0.9,1.9-1.3,2.6-1.4c0.8-0.1,1.4,0.1,1.7,0.3c0.3,0.2,0.3,0.3,0.4,0.5c0.1,0.4-0.3,0.9-0.5,0.9c-0.1,0-0.2,0-0.4-0.1
			c-0.6-0.4-1.3-0.6-1.9-0.5c-1.2,0.2-2.1,1.3-1.8,3.2c0.3,2.5,2.1,3.1,3.2,2.9c0.7-0.1,1.3-0.4,2-1.3
			C408.8,432.1,408.9,432.2,409.1,432.3z"/>
		<path class="st3" d="M416.5,426.1c0.3-0.2,0.7-0.4,1.1-0.5c1.9-0.3,3.4,1,3.7,2.9c0.3,2.1-1,4.2-3.1,4.5c-2.1,0.3-4-1.2-4.3-3.9
			c-0.5-3.7,2-6.4,4-7.4c0.4-0.2,1.2-0.5,2-0.7c0.1,0.2,0.1,0.3,0.2,0.6c-0.6,0.2-1.4,0.6-1.9,0.9c-1,0.7-2.5,2.1-2.7,4.6
			C415.8,426.5,416.1,426.4,416.5,426.1z M417,426.7c-0.7,0.1-1.3,0.5-1.7,0.7c0,0.3,0,0.8,0.1,1.2c0.3,2.2,1.4,3.8,2.9,3.5
			c1.4-0.2,1.6-1.7,1.4-2.9C419.6,427.8,418.7,426.5,417,426.7z"/>
		<path class="st3" d="M424.3,432.1c-0.6,0.1-1.2-0.3-1.2-1c-0.1-0.6,0.3-1.2,0.9-1.3c0.6-0.1,1.2,0.3,1.3,1
			C425.4,431.5,425,432,424.3,432.1z"/>
		<path class="st3" d="M432,419.5c0.1,0.1,0.1,0.1,0.1,0.1c-0.1,0.5-0.2,0.7-0.3,1.2c-1.6,0.2-2.5,0.3-4.1,0.6c0,1-0.1,2.4-0.1,3.3
			c0.6-0.3,1.6-0.7,2-0.8c2.2-0.3,3.6,1.1,3.8,2.6c0.1,1.1-0.2,2.2-1.1,3.2c-0.9,0.9-2,1.6-3,1.7c-0.8,0.1-1.5-0.1-2-0.4
			c-0.3-0.2-0.4-0.3-0.4-0.6c0-0.1,0.1-0.4,0.3-0.7c0.1-0.1,0.3-0.2,0.5-0.1c0.6,0.4,1.3,0.8,2.4,0.7c1.5-0.2,2-1.6,1.8-2.9
			c-0.2-1.6-1.3-2.6-3.3-2.3c-0.7,0.1-1.3,0.3-1.7,0.6c0,0,0,0-0.1-0.1c0.1-1.4,0.1-4,0.1-5.5C429,419.9,430,419.7,432,419.5z"/>
		<path class="st3" d="M436.8,418.6c1.9-0.3,2.9,1.4,3.1,2.9c0.2,1.5-0.3,3.4-2.2,3.6s-2.9-1.4-3.1-2.9
			C434.4,420.8,434.9,418.8,436.8,418.6z M436.9,419.1c-1.1,0.2-1.1,1.9-0.9,2.9c0.1,1,0.6,2.7,1.7,2.5c1.1-0.2,1-2,0.9-2.9
			C438.4,420.7,438,419,436.9,419.1z M438.8,430.2c-0.3-0.1-0.4-0.2-0.6-0.3c2.3-4.9,3.4-7.4,5.7-12.3c0.3,0.1,0.4,0.2,0.7,0.3
			C442.2,422.8,441,425.3,438.8,430.2z M444.9,422.5c1.9-0.3,2.9,1.4,3.1,2.9c0.2,1.5-0.3,3.4-2.2,3.7c-1.9,0.3-2.9-1.4-3.1-2.9
			C442.5,424.7,443.1,422.8,444.9,422.5z M445,423.1c-1.1,0.1-1.1,1.9-0.9,2.9c0.1,1,0.6,2.7,1.7,2.5c1.1-0.2,1-1.9,0.9-2.9
			C446.5,424.6,446.1,422.9,445,423.1z"/>
		<path class="st3" d="M460.9,419.3c-0.9,0.3-1.1,0.4-1.4,1.6c-0.4,1.5-1.1,4-1.7,6.6c-0.2,0-0.3,0-0.5,0.1c-1-1.9-2.2-3.9-3.3-5.9
			c-0.6-1-0.7-1.1-1.7-1.1c0-0.2,0-0.3-0.1-0.5c1.5-0.2,2.2-0.3,3.6-0.5c0,0.2,0,0.3,0.1,0.5c-1,0.3-1,0.4-0.6,1.1
			c0.6,1.2,1.6,3,2.3,4.1c0.4-1.7,0.8-3.2,1-4.4c0.2-0.9,0.1-1.1-1.1-1.1c0-0.2,0-0.3-0.1-0.5c1.3-0.2,1.9-0.3,3.2-0.5
			C460.8,419,460.8,419.1,460.9,419.3z"/>
		<path class="st3" d="M465.1,418c2.2-0.3,4.1,1.2,4.4,3.5c0.4,2.9-1.5,4.6-3.3,4.8c-2.5,0.3-4.2-1.4-4.5-3.4
			C461.4,419.9,463.4,418.2,465.1,418z M465,418.6c-1.1,0.2-1.9,1.3-1.6,3.4c0.3,2.3,1.5,3.8,3,3.6c1.1-0.2,1.9-1.1,1.6-3.5
			C467.7,420,466.6,418.4,465,418.6z"/>
		<path class="st3" d="M471.1,425.3c0-0.2,0-0.3-0.1-0.5c1.1-0.3,1.3-0.4,1.1-1.6c-0.5-3.4-0.7-5.1-1.2-8.5
			c-0.2-1.1-0.3-1.2-1.4-1.2c0-0.2,0-0.3-0.1-0.5c0.9-0.2,2-0.7,2.6-1c0.1,0.8,0.2,1.7,0.4,2.5c0.5,3.4,0.7,5.1,1.2,8.4
			c0.2,1.2,0.3,1.3,1.5,1.2c0,0.2,0,0.3,0.1,0.5C473.5,425,472.7,425.1,471.1,425.3z"/>
	</g>
</g>
<g>
	<polygon class="st11" points="242.5,533.1 302.7,578.6 273.7,587 238.8,556.3 250.2,554.9 	"/>
	<path class="st12" d="M242.5,533.1l21.4,6.5l5.3-10.5l13.7,19.4c0,0,0.5,0.3,2-0.2c1.5-0.6,17.7,30.2,17.7,30.2L242.5,533.1z"/>
	<path class="st11" d="M284.9,548.4c0,0,1.1,0.1,1.2-2.6c0.1-2.7-5.3-34.3-5.3-34.3l12,3.2l8.7-21c0,0,0.6-1.6,1.2-1.2
		c0.6,0.4,0,86.1,0,86.1L284.9,548.4z"/>
	<path class="st13" d="M322.4,548.6c0,0-2.8-0.1-2.9-2.8c-0.1-2.7,5.3-34.3,5.3-34.3l-12,3.2l-8.7-21c0,0-0.9-1.6-1.5-1.2
		c-0.6,0.4,0,86.1,0,86.1L322.4,548.6z"/>
	<path class="st11" d="M362.9,533.1l-21.4,6.5l-5.3-10.5l-13.7,19.4c0,0-5.7,21.1-7.2,20.5c-1.5-0.6-12.5,9.5-12.5,9.5L362.9,533.1z
		"/>
	<polygon class="st13" points="362.9,533.1 355.3,555.8 368.5,555.8 333.4,587.6 336.9,597.2 302.7,578.6 	"/>
	<polygon class="st11" points="306.2,592 336.9,597.2 302.7,578.6 	"/>
	<polygon class="st11" points="273.7,587 268.4,597.2 302.7,578.6 	"/>
	<polygon class="st13" points="268.4,597.2 299.2,592.3 302.7,578.6 	"/>
	<polygon class="st11" points="299.2,592.3 298.5,621.7 302.7,621.7 302.7,578.6 	"/>
	<polygon class="st13" points="306.2,592 302.7,578.6 302.7,621.7 306.9,621.7 	"/>
	<polygon class="st11" points="322.4,548.6 302.7,578.6 318.4,566.7 	"/>
</g>
<g>
	<g>
		<path class="st3" d="M202.4,625.9c3.9,2.1,6,6.7,3.9,11c-2.3,4.6-7.4,5.7-11.9,3.2c-4.7-2.6-6.3-7.7-3.9-11.5
			C192.8,624.9,197.7,623.2,202.4,625.9z M201.6,626.4c-2.5-1.4-6-0.8-8.3,3c-2.3,3.8-1.5,8.1,2,10c3,1.6,6.2,0.8,8.3-3.3
			C205.9,631.7,204.5,628,201.6,626.4z"/>
		<path class="st3" d="M228,638.7c-1.6-0.4-2.2-0.4-2.7,0.6c-0.3,0.7-0.7,1.6-1.5,3.7c-1.4,3.6-2.1,5.4-3.5,9
			c-0.4-0.2-0.6-0.2-1-0.4c-2.6-6.4-3.7-9.6-5.7-16c-1,2.2-1.5,3.3-2.5,5.5c-0.9,2-1.3,3-1.5,3.6c-0.4,1.1,0,1.8,1.8,2.7
			c-0.1,0.2-0.2,0.4-0.3,0.6c-2.5-1.1-3.7-1.7-6.1-2.8c0.1-0.2,0.2-0.4,0.3-0.6c1.6,0.6,2.4,0.6,3-0.4c0.4-0.7,0.9-1.6,1.8-3.6
			c1-2.2,1.5-3.3,2.6-5.6c0.3-0.6,0.4-1,0.2-1.7c-0.2-0.7-0.6-1.1-1.7-1.8c0.1-0.2,0.2-0.4,0.3-0.6c1.4,0.7,2.1,1,3.5,1.6
			c1.9,6.2,3.1,9.3,5.6,15.5c0.9-2.2,1.3-3.3,2.2-5.5c0.8-2.1,1.1-3.1,1.3-3.8c0.3-1-0.1-1.6-2-2.4c0.1-0.2,0.2-0.4,0.3-0.6
			c2.3,1,3.5,1.4,5.9,2.3C228.1,638.3,228.1,638.4,228,638.7z"/>
		<path class="st3" d="M242,646.6c0-0.8-0.1-1.6-0.2-2.1c-0.2-0.7-0.4-1-1.8-1.4c-1-0.3-1.5-0.4-2.4-0.8c-1.4,4.5-2.1,6.7-3.5,11.1
			c-0.6,1.8-0.4,2.1,2,3c-0.1,0.3-0.1,0.4-0.2,0.6c-3-0.9-4.6-1.4-7.6-2.4c0.1-0.3,0.1-0.4,0.2-0.6c2.5,0.7,2.7,0.5,3.3-1.3
			c1.5-4.4,2.2-6.7,3.6-11.1c-0.9-0.3-1.3-0.4-2.2-0.7c-1.3-0.5-1.8-0.5-2.4,0.1c-0.5,0.3-0.8,0.8-1.5,1.5c-0.3-0.1-0.4-0.2-0.7-0.3
			c0.6-1.3,1.3-2.7,1.8-3.9c0.2,0.1,0.3,0.1,0.5,0.2c0.2,0.7,0.4,0.7,1.1,1c3.8,1.3,5.7,1.9,9.6,3.1c0.7,0.2,0.9,0.2,1.4-0.2
			c0.2,0.1,0.3,0.1,0.6,0.2c-0.3,1.1-0.7,2.8-0.9,4.2C242.5,646.6,242.3,646.6,242,646.6z"/>
		<path class="st3" d="M249.2,660.6c0.1-0.3,0.1-0.4,0.2-0.7c1.8,0.2,2,0,1.9-1c-0.2-1-0.4-2.3-0.6-3.9c-2.2-0.5-3.3-0.8-5.6-1.4
			c-0.7,0.9-1.3,1.7-1.9,2.6c-1,1.4-0.7,1.6,1.4,2.4c-0.1,0.3-0.1,0.4-0.2,0.7c-2.4-0.6-3.7-1-6.1-1.7c0.1-0.3,0.1-0.4,0.2-0.6
			c1.7,0.3,2.2,0.2,3.7-1.6c3.5-4.3,5.2-6.4,8.4-10.8c0.3,0,0.5,0,0.8,0.1c0.6,4.4,1.3,9.2,2.1,13.6c0.4,2.2,0.6,2.5,2.5,3
			c-0.1,0.3-0.1,0.4-0.1,0.7C253.1,661.5,251.8,661.2,249.2,660.6z M249.6,647.6c-1.3,1.8-2.7,3.7-3.9,5.3c1.9,0.5,2.9,0.7,4.8,1.2
			C250.1,651.5,249.9,650.2,249.6,647.6z"/>
		<path class="st3" d="M272.7,664.9c-0.4,0-0.6-0.1-1-0.2c-2-0.4-2.9-1-3.9-2.6c-0.8-1.3-1.5-3-2.2-4.3c-0.4-0.8-0.7-1-2-1.3
			c-0.4-0.1-0.5-0.1-0.9-0.2c-0.3,1.5-0.4,2.2-0.6,3.7c-0.3,2-0.1,2.2,2,2.7c0,0.3-0.1,0.4-0.1,0.7c-2.9-0.5-4.3-0.7-7.1-1.3
			c0.1-0.3,0.1-0.4,0.1-0.7c2.2,0.2,2.5,0.1,2.8-1.9c0.7-3.8,1-5.7,1.7-9.4c0.4-2,0.1-2.1-1.8-2.7c0.1-0.3,0.1-0.4,0.1-0.7
			c2.5,0.5,3.8,0.7,6.3,1.1c1.8,0.3,3,0.7,3.9,1.4c0.9,0.8,1.5,1.9,1.3,3.4c-0.3,2-1.9,3.1-3.9,3.6c0.4,0.8,1.2,2.6,1.9,3.7
			c0.8,1.4,1.2,2.1,1.8,2.7c0.6,0.8,1.2,1.1,1.8,1.3C272.8,664.5,272.8,664.7,272.7,664.9z M264,655.8c1.3,0.2,2.2,0.2,2.9-0.2
			c1.1-0.5,1.7-1.4,1.8-2.7c0.4-2.5-1.3-3.7-3.2-4c-0.7-0.1-1.2-0.1-1.4,0c-0.2,0.1-0.4,0.4-0.5,1c-0.4,2.3-0.6,3.5-1,5.8
			C263.3,655.7,263.5,655.8,264,655.8z"/>
		<path class="st3" d="M273.8,664.9c0-0.3,0-0.4,0.1-0.7c2.2,0,2.4-0.1,2.7-2.1c0.4-3.8,0.6-5.7,1-9.5c0.2-2.1,0-2.2-2-2.6
			c0-0.3,0-0.4,0.1-0.7c2.7,0.3,4,0.4,6.7,0.6c0,0.3,0,0.4-0.1,0.7c-2.1,0.1-2.3,0.1-2.5,2.2c-0.3,3.8-0.5,5.7-0.9,9.5
			c-0.2,2.1,0,2.2,2.2,2.5c0,0.3,0,0.4-0.1,0.7C278.1,665.3,276.6,665.2,273.8,664.9z"/>
		<path class="st3" d="M293.1,650.2c4.3,0.1,8.2,3.2,8.3,7.9c0.1,5.2-3.8,8.5-8.8,8.3c-5.2-0.1-8.8-3.9-8.5-8.4
			C284.3,653.8,287.8,650.1,293.1,650.2z M292.5,651.1c-2.8-0.1-5.5,2-5.7,6.5c-0.2,4.5,2.3,7.9,6.2,8c3.3,0.1,5.7-2.1,5.7-6.7
			C298.6,653.8,295.8,651.2,292.5,651.1z"/>
		<path class="st3" d="M325.9,660.5c-0.2,1.2-0.7,3-1,3.8c-0.8,0.2-2.8,0.9-4.9,1.1c-6.4,0.7-10-3-10.2-7.2c-0.3-4.9,3.4-8.5,9-9.1
			c2.1-0.2,4.6-0.2,4.8,0c0.3,0.3,0.6,2.5,1,3.6c-0.3,0.1-0.5,0.2-0.8,0.3c-0.7-1.5-1.4-2.4-2.8-2.8c-0.7-0.2-1.7-0.3-2.7-0.2
			c-4.1,0.4-6.1,3.5-5.8,7.4c0.3,4.6,3.2,7.4,7.6,7c2.7-0.3,4-1.6,5-4.1C325.4,660.4,325.6,660.4,325.9,660.5z"/>
		<path class="st3" d="M339,662.2c-0.1-0.3-0.1-0.4-0.1-0.7c1.7-0.5,1.8-0.8,1.3-1.6c-0.5-0.8-1.3-1.9-2.1-3.3
			c-2.2,0.4-3.4,0.6-5.6,1c-0.2,1.1-0.5,2.1-0.7,3.2c-0.3,1.6,0.1,1.8,2.3,1.6c0,0.3,0.1,0.4,0.1,0.7c-2.5,0.4-3.7,0.6-6.2,1
			c0-0.3-0.1-0.4-0.1-0.7c1.7-0.4,2.1-0.7,2.7-2.9c1.4-5.3,2-8,3.2-13.3c0.3-0.1,0.5-0.2,0.8-0.3c2.3,3.7,5,7.8,7.5,11.5
			c1.3,1.9,1.6,2,3.5,1.8c0.1,0.3,0.1,0.4,0.2,0.7C343,661.4,341.7,661.7,339,662.2z M334.1,650.1c-0.4,2.2-0.9,4.5-1.4,6.5
			c1.9-0.3,2.9-0.5,4.8-0.9C336.1,653.5,335.4,652.3,334.1,650.1z"/>
		<path class="st3" d="M360.1,641.2c-1.5,0.7-1.9,1.1-1.7,2.1c0.2,0.7,0.5,1.7,1.1,3.8c1.2,3.7,1.7,5.5,2.9,9.2
			c-0.4,0.1-0.6,0.2-1,0.3c-6-3.4-8.8-5.2-14.3-9c0.6,2.3,0.9,3.5,1.5,5.8c0.5,2.1,0.9,3.1,1.1,3.8c0.4,1.1,1.1,1.4,3,1
			c0.1,0.3,0.1,0.4,0.2,0.6c-2.6,0.7-3.8,1-6.4,1.6c-0.1-0.3-0.1-0.4-0.2-0.7c1.6-0.5,2.1-1,2-2.2c-0.1-0.8-0.3-1.8-0.8-3.9
			c-0.6-2.4-0.9-3.6-1.5-5.9c-0.2-0.7-0.3-1-0.9-1.4c-0.6-0.4-1.2-0.5-2.4-0.3c-0.1-0.3-0.1-0.4-0.2-0.7c1.5-0.3,2.2-0.5,3.7-0.9
			c5.3,3.6,8.1,5.4,13.9,8.6c-0.7-2.2-1-3.4-1.7-5.6c-0.7-2.1-1-3.1-1.3-3.8c-0.4-1-1-1.1-3-0.7c-0.1-0.3-0.1-0.4-0.2-0.6
			c2.4-0.7,3.6-1.1,6-1.9C360,640.9,360,641,360.1,641.2z"/>
		<path class="st3" d="M375.6,651.5c-0.1-0.3-0.1-0.4-0.2-0.6c1.6-0.8,1.7-1.1,1-1.8c-0.7-0.7-1.6-1.7-2.7-2.9
			c-2.1,0.8-3.2,1.2-5.4,2c0,1.2-0.1,2.2-0.1,3.2c0,1.7,0.4,1.7,2.6,1.2c0.1,0.3,0.1,0.4,0.2,0.6c-2.4,0.9-3.6,1.3-6,2.1
			c-0.1-0.3-0.1-0.4-0.2-0.6c1.6-0.7,1.9-1,2.1-3.4c0.5-5.5,0.6-8.2,0.8-13.7c0.3-0.2,0.4-0.3,0.7-0.4c3,3.3,6.3,6.8,9.5,10
			c1.6,1.6,1.9,1.7,3.8,1.1c0.1,0.2,0.2,0.4,0.3,0.6C379.4,650,378.2,650.5,375.6,651.5z M368.6,640.5c0,2.2-0.1,4.6-0.2,6.6
			c1.9-0.7,2.8-1,4.6-1.7C371.2,643.5,370.3,642.5,368.6,640.5z"/>
		<path class="st3" d="M383.2,631.2c3.3-1.6,5.6-2,7.7-1.5c1.7,0.4,3.3,1.5,4.4,3.5c1.3,2.5,1.3,5.1,0,7.3c-1.2,2.2-3.4,3.9-6.5,5.3
			c-2.3,1.1-3.5,1.6-5.9,2.7c-0.1-0.2-0.2-0.4-0.3-0.6c2.1-1.1,2.1-1.3,1.3-3.1c-1.6-3.5-2.3-5.2-3.9-8.7c-0.8-1.9-1.2-1.8-3.1-1.2
			c-0.1-0.2-0.2-0.4-0.3-0.6C379.3,633.1,380.6,632.5,383.2,631.2z M386.1,643.6c0.8,1.6,1.8,1.7,3.6,0.8c4.5-2.1,5.3-6,3.4-9.7
			c-1.2-2.3-3-3.6-5.3-3.7c-1.4-0.1-2.8,0.3-4.4,1.1c-1,0.5-1.5,0.9-1.7,1.2c-0.1,0.2-0.1,0.5,0.3,1.4
			C383.6,638.2,384.4,640,386.1,643.6z"/>
		<path class="st3" d="M410,634.4c-0.1-0.2-0.2-0.3-0.4-0.6c1.4-1.1,1.5-1.4,0.7-2c-0.8-0.6-1.9-1.3-3.2-2.3c-2,1.2-3,1.8-5,3
			c0.2,1.2,0.3,2.2,0.4,3.2c0.2,1.7,0.7,1.6,2.8,0.7c0.1,0.2,0.2,0.3,0.3,0.6c-2.2,1.3-3.3,1.9-5.6,3.2c-0.1-0.2-0.2-0.4-0.3-0.6
			c1.4-1,1.8-1.4,1.5-3.7c-0.5-5.5-0.8-8.2-1.6-13.7c0.3-0.2,0.4-0.3,0.6-0.6c3.5,2.7,7.5,5.5,11.2,8.1c1.9,1.3,2.2,1.3,4,0.4
			c0.1,0.2,0.2,0.3,0.4,0.6C413.5,632.2,412.4,632.9,410,634.4z M401,624.8c0.3,2.2,0.7,4.5,0.9,6.6c1.7-1,2.6-1.5,4.3-2.6
			C404.2,627.2,403.1,626.4,401,624.8z"/>
	</g>
</g>
<g>
	<g>
		<path class="st3" d="M393,573.7v-0.6c2.3-0.1,2.5-0.3,2.5-1.8v-8.1c0-1.1-0.1-1.1-1.1-1.2l-1-0.1v-0.5c1.4-0.2,2.8-0.6,3.8-1v10.9
			c0,1.6,0.1,1.7,2.5,1.8v0.6H393z"/>
		<path class="st3" d="M406.5,560.3c2,0,3.4,1.4,3.4,3.1c0,0.6-0.2,1.2-0.6,1.7c-0.2,0.2-0.8,0.7-1.7,1.3c1.4,0.8,2.9,1.8,2.9,3.6
			c0,2.5-2.2,3.8-4.2,3.8c-2.3,0-4.1-1.3-4.1-3.5c0-1.1,0.5-1.7,1-2.1c0.3-0.3,1.2-0.8,1.9-1.3c-1.4-0.8-2.3-1.8-2.3-3.3
			C402.8,561.9,404.2,560.3,406.5,560.3z M406.5,573.2c1.4,0,2.3-0.9,2.3-2.5c0-1.7-1.4-2.5-3.1-3.3c-1.1,0.7-1.8,1.6-1.8,2.9
			C403.9,572.2,405.1,573.2,406.5,573.2z M406.3,561c-1.3,0-1.9,1-1.9,2.2c0,1.5,1,2.1,2.7,3c0.8-0.6,1.4-1.4,1.4-2.6
			C408.4,561.8,407.4,561,406.3,561z"/>
		<path class="st3" d="M421.1,560.9c-2,4.3-4,8.5-6,12.8l-1.5,0.1l-0.1-0.2c2.2-3.5,4.5-7.9,6.2-11.5h-4.5c-1.4,0-1.4,0.2-2,1.6
			h-0.7c0.2-1.2,0.3-2.2,0.4-3.1h8.1L421.1,560.9z"/>
		<path class="st3" d="M426.9,560.3c2,0,3.4,1.4,3.4,3.1c0,0.6-0.2,1.2-0.6,1.7c-0.2,0.2-0.8,0.7-1.7,1.3c1.4,0.8,2.9,1.8,2.9,3.6
			c0,2.5-2.2,3.8-4.2,3.8c-2.3,0-4.1-1.3-4.1-3.5c0-1.1,0.5-1.7,1-2.1c0.3-0.3,1.2-0.8,1.9-1.3c-1.4-0.8-2.3-1.8-2.3-3.3
			C423.1,561.9,424.6,560.3,426.9,560.3z M426.9,573.2c1.4,0,2.3-0.9,2.3-2.5c0-1.7-1.4-2.5-3.1-3.3c-1.1,0.7-1.8,1.6-1.8,2.9
			C424.3,572.2,425.5,573.2,426.9,573.2z M426.6,561c-1.3,0-1.9,1-1.9,2.2c0,1.5,1,2.1,2.7,3c0.8-0.6,1.4-1.4,1.4-2.6
			C428.8,561.8,427.7,561,426.6,561z"/>
	</g>
</g>
</svg>
