<svg id="Layer_1" data-name="Layer 1" xmlns="http://www.w3.org/2000/svg" width="471.4" height="332.63" viewBox="0 0 471.4 332.63">
  <defs>
    <style>
      .cls-1 {
        fill: #2c61ab;
      }

      .cls-2 {
        fill: #ba1c1c;
      }

      .cls-3 {
        fill: #fff;
      }
    </style>
  </defs>
  <g id="Layer_2" data-name="Layer 2">
    <g id="Original-2" data-name="Original">
      <g>
        <path class="cls-1" d="M.75,84.74s251.1-104.2,470-25.2v86.3s-354.6,14.4-470,168.9v-230Z"/>
        <path class="cls-1" d="M.25,316.24V84.34l.3-.1c.6-.3,63.9-26.3,153-42.3,52.4-9.4,103.3-13.6,151.4-12.4,60.1,1.5,115.9,11.4,165.9,29.5l.3.1v87.1h-.5c-.9,0-89.8,3.9-191.7,26.5-59.8,13.3-112.3,30.4-156,50.8-54.6,25.5-95.6,56.2-121.9,91.4Zm1-231.1v228.1c26.4-34.8,67.2-65.3,121.4-90.6,43.8-20.4,96.4-37.5,156.2-50.9,98.1-21.8,184.1-26.2,191.3-26.5V59.84c-49.8-17.9-105.4-27.8-165.3-29.3-48-1.2-98.9,3-151.2,12.3C67.85,58.34,6.15,83.14,1.25,85.14Z"/>
        <path class="cls-1" d="M30,286.14l-1.6-1.3c.2-.3,20.2-26.5,81.8-56.5,102.8-50,240.8-72,338.5-81.6l.2,2.1c-97.4,9.6-235.1,31.5-337.6,81.3C50,259.94,30.15,285.94,30,286.14Z"/>
      </g>
      <g>
        <path class="cls-2" d="M104.55,117.64c2.8,19,4.7,38.8,10.3,57.3.1.2-.2.5-.5.6-6.4,2.5-9.6,3.7-16.2,6.3-1.8.7-3.5.4-3.8-.8-2.2-9.8-3.3-19.8-4.5-29.8-.4-3.4-4.9-2.4-5.4,1.2-1.6,12.2-3.1,24.4-5.4,36.6,0,.2-.3.4-.6.5-6.4,2.6-9.6,3.9-15.9,6.5-1.1.5-2.2.4-2.6-.2-5.2-9-7.7-19.2-10.5-29.1-.9-3.4-5.4-1-5.3,2.9.3,11,.4,22.1,1.4,33.1a1,1,0,0,1-.6.7c-6.6,2.8-9.8,4.2-15.8,6.8-1,.4-1.8.2-1.9-.6-1.5-27.5-.5-55.2-.2-82.8h0c0-2.8,1.6-5.6,3.7-6.4q25.95-10.95,52-21.3c.9-.3-16.3,12.1-22.2,16.3-3.5,2.4-5.4,7.7-4.3,12.1,2.6,10.4,3.9,16.1,6.9,26.4,1,3.6,5.7,1.8,6.3-2.3,1.8-12.7,3.6-25.4,5.2-38.2,0,0-.4-3.7,6.4-7.9A167.14,167.14,0,0,1,126,86c47.6-13.3,147-28,147-28s-55.6,10.9-81.7,21.1a645.9,645.9,0,0,0-78.9,26.3h0c.1-.2-8.2,3.8-7.8,12.2Z"/>
        <path class="cls-2" d="M171.25,149.94c-4.6,1.7-7.2,2.6-13.1,4.8h0v-.1c-.6-2.1-3.7-2.3-5.2-.3a14.16,14.16,0,0,1-2,2.2,25.36,25.36,0,0,1-9,5.1c-5.2,2-9.9,2.5-13.8,1.1s-6.5-5-7.9-11.7c-1.9-9.7-3.6-19.6-5.2-29.4-.5-3.2,1.3-6.5,4.2-7.4,5.4-1.6,8.1-2.4,13.3-3.9a.44.44,0,0,1,.6.4c1.8,9.6,3.6,19.3,5.7,28.9.7,3.2,1.7,5.1,3.1,6s3.1.9,5.1.2a8.09,8.09,0,0,0,4.6-4.3c.9-2.1.9-5.4,0-10-1.9-9.6-2.8-14.8-4.7-24.7a.57.57,0,0,1,.4-.7c6.7-1.8,10-2.6,16.3-4.1.3-.1.5.1.5.4,2.2,15.6,4.2,31.3,7.5,46.7C171.55,149.74,171.45,149.94,171.25,149.94Z"/>
        <path class="cls-2" d="M176.65,135.74c3.9-1.8,10.4-4.2,17.2-6.7h0a6.46,6.46,0,0,0,4,3.2,12.23,12.23,0,0,0,6.1-.5,13,13,0,0,0,6-3,3.64,3.64,0,0,0,1.4-2.9c-.1-1.2-1-1.9-2.6-2.2-1.1-.2-4-.1-8.8.4a122.09,122.09,0,0,1-15,1.1,11.76,11.76,0,0,1-7.5-2.8c-2.1-1.8-3.1-4.3-3.4-7.4a14.13,14.13,0,0,1,2.1-9.4,21.07,21.07,0,0,1,8-7.3,46,46,0,0,1,14-4.5c6.2-1.1,10.8-1.4,13.8-1.1a17.63,17.63,0,0,1,7.6,2.7,17,17,0,0,1,5.2,5.7c.2.3,0,.6-.4.7-7,1.8-10.5,2.8-17.7,4.9h0a4.82,4.82,0,0,0-2.8-2.8,11.06,11.06,0,0,0-5.8-.3c-2.3.5-3.9,1.2-4.8,2.2a3.76,3.76,0,0,0-1.3,3.1,2.45,2.45,0,0,0,2.2,2.2c1.4.3,4.3.2,8.7-.4,6.7-.8,11.6-.8,14.9-.3a14.78,14.78,0,0,1,7.8,3.4,9.78,9.78,0,0,1,3.3,6.1,10.82,10.82,0,0,1-1.8,7.2c-1.5,2.5-4,4.7-7.6,6.8s-8.8,4-15.5,6c-9.5,2.8-16.7,4.3-21.2,3.7s-4.9-3.7-6.1-7.8Z"/>
        <path class="cls-2" d="M258.15,127.14c-7.1,1.1-10.7,1.8-18,3.2a.49.49,0,0,1-.6-.3c-1-14.7-1.6-29.5-2.2-44.3,0-.2-.2-2.2.1-2.3,7.5-.8,11.2-1.1,18.6-1.8.3,0,.6.2.6.4-.5,4.1-.7,6.3-1.1,10.6,0,2.6,3.9,3.6,5.6,1.4,2.7-3.3,4-4.9,6.6-8.1a.52.52,0,0,1,.4-.2c8.6-.7,12.8-1,21.2-1.7.4,0,.7.4.4.6-5,6.2-7.5,9.4-12.5,15.8a4.51,4.51,0,0,0,.4,6.2c6.8,6.4,10.2,9.4,16.8,14.9.3.2.1.6-.3.6-7.5.8-11.3,1.2-18.9,2.2-.2,0-.3,0-.4-.1-4.8-3.5-7.2-5.4-12-9.3-1.9-1.5-5.3-.1-5.1,2.1.3,4,.5,5.9.8,9.4C258.65,126.84,258.45,126.94,258.15,127.14Z"/>
        <path class="cls-2" d="M293.45,103.84a18.18,18.18,0,0,1,5.9-15.5c4.5-4.3,10.8-6.6,19-7.2,9.4-.7,16.4,1,21.2,5.2a17.34,17.34,0,0,1,6.1,12.6,17.84,17.84,0,0,1-5.6,14.5c-4.1,4-10.1,6.3-18.4,7-7.4.7-13.5-.2-18.3-2.6C297.45,114.84,294.05,110.34,293.45,103.84Zm17.9-1.6c.3,3.4,1.4,5.8,3.2,7.2a9.09,9.09,0,0,0,6.5,1.8,8.42,8.42,0,0,0,6-2.9q2.25-2.55,1.8-7.8-.45-5-3-7.2a8.34,8.34,0,0,0-6.4-1.9,8.59,8.59,0,0,0-6.2,3C311.75,96.24,311.05,98.84,311.35,102.24Z"/>
        <path class="cls-2" d="M369.45,115.14c-5.7.6-8.6.9-14.6,1.5-.2,0-.4-.1-.4-.3-.2-13.8.1-27.6.3-41.4a.43.43,0,0,1,.4-.4c6-.1,8.9-.2,14.8-.2.3,0,.5.2.4.4-.2,3.9-.4,5.8-.6,9.7-.2,2.2,3,3.3,4.6,1.5,2.5-2.6,3.8-3.9,6.4-6.3a.37.37,0,0,1,.3-.1c7.3,0,11,0,18.4.1.3,0,.5.3.3.5-5.1,5.4-7.5,8.2-12.2,14a3.5,3.5,0,0,0-.1,4.6c4.6,5.4,6.8,8,11.5,13.2.2.2,0,.6-.3.6-6.2.5-9.3.7-15.4,1.3a.37.37,0,0,1-.3-.1c-2.8-3.1-4.2-4.7-7-7.9a3.08,3.08,0,0,0-5.2,1.6c-.4,3-.6,4.5-.9,7.4C369.75,114.84,369.65,115.14,369.45,115.14Z"/>
        <path class="cls-2" d="M433,111.24c0-1-.1-1.5-.1-2.4h0c-.3-.9-1.7-1.2-2.7-.6a24.21,24.21,0,0,1-4.3,2.1,34.86,34.86,0,0,1-9.6,1.8c-4.8.2-8.3-.4-10.7-2.1a7.3,7.3,0,0,1-3.4-6.5,8.24,8.24,0,0,1,3-6.2c1.9-1.7,5.3-2.9,10.3-3.8,6-1,10.1-1.7,11.9-2.1a16.25,16.25,0,0,0,1.9-.4h0c8.6-1,3.3-4,3.3-4-.8-.6-2.2-.8-4.3-.8a16.57,16.57,0,0,0-6.2.9,6.55,6.55,0,0,0-2.8,2.7h0l-14.5-1c-.3,0-.4-.2-.3-.4a12.25,12.25,0,0,1,2.7-4.5,13.29,13.29,0,0,1,5-3,25.39,25.39,0,0,1,6.3-1.3,77.6,77.6,0,0,1,8.6-.4,120.35,120.35,0,0,1,12.2.7,18.41,18.41,0,0,1,7.5,2.4,6.68,6.68,0,0,1,2.9,3.5,7.56,7.56,0,0,1,.5,4.4c-.9,5.2-1.4,7.8-2,13.4-.3,2.7-.4,4.1-.5,6.9h0C441.65,110.74,438.75,110.84,433,111.24Zm-7.5-13.9q-4.95,1.05-6.3,2.1a3.36,3.36,0,0,0-1.5,2.3,2.39,2.39,0,0,0,1.1,2.3,6.36,6.36,0,0,0,3.7.8,14.1,14.1,0,0,0,5-1.2c1.6-.7,3.2-1.4,3.5-2.5C432.25,96.64,425.45,97.34,425.45,97.34Z"/>
      </g>
      <g>
        <path class="cls-3" d="M108.65,122.94c2.8,19.5,4.7,39.7,10.4,58.6.1.2-.2.5-.5.6-7.4,2.9-11.1,4.3-18.8,7.3-.3.1-.7.1-.7-.1-2.5-10.6-3.6-21.5-5-32.4-.4-3.5-4.9-2.5-5.3,1.2-1.5,12.5-3.1,25-5.2,37.5,0,.2-.3.4-.5.5-7,2.8-10.4,4.2-17.2,7-.3.1-.5.1-.6-.1-5.6-9.4-8.1-20.4-11-30.8-.9-3.5-5.3-1.1-5.2,2.8.3,11.3.4,22.7,1.4,34a1,1,0,0,1-.5.7c-7.1,3-10.5,4.5-17,7.3a.45.45,0,0,1-.6-.2c-1.7-28.4-.6-57-.2-85.4,0-.4-.2-4.9.1-4.9,18.2-7.7,36.5-15.3,54.9-22.5.9-.2-16.1,12-21.9,16.2-3.4,2.4-5.3,7.7-4.2,12.2,2.6,10.6,3.9,16.4,6.8,27,1,3.7,5.7,1.9,6.3-2.3,1.8-12.9,3.5-25.9,5.1-38.8,0,0-.2-4.3,6.3-7.9,63-34.7,222.5-48,222.5-48s-76.8,10-113.3,22a613.47,613.47,0,0,0-78.2,26.2C116.45,110.34,108.25,114.34,108.65,122.94Z"/>
        <path class="cls-3" d="M177.75,157.74c-4.3,1.6-6.9,2.5-12.5,4.6h0v-.1c-.6-2-3.6-2.2-5.1-.3a20.89,20.89,0,0,1-2,2.2,26.23,26.23,0,0,1-8.7,5c-5.1,1.9-9.7,2.5-13.6,1.2s-6.6-4.9-7.9-11.6c-2.4-11.6-4.3-23.3-6.3-34.9a.68.68,0,0,1,.4-.8c7.2-2.2,10.8-3.3,17.7-5.3a.44.44,0,0,1,.6.4c1.8,9.8,3.7,19.6,5.8,29.3.7,3.2,1.8,5.2,3.2,6a5.44,5.44,0,0,0,5,.2,7,7,0,0,0,4.4-4.2c.9-2.1.8-5.3-.1-10-1.9-9.6-2.9-15-4.7-25.1a.57.57,0,0,1,.4-.7c6.6-1.8,9.8-2.6,16-4.1.3-.1.5.1.5.5,2.1,15.7,4,31.6,7.3,47.1A.92.92,0,0,1,177.75,157.74Z"/>
        <path class="cls-3" d="M183.75,143.34c6.9-2.9,10.4-4.2,17.1-6.7h0a6.46,6.46,0,0,0,4,3.2,12.79,12.79,0,0,0,6-.4,13.5,13.5,0,0,0,6-3,3.51,3.51,0,0,0,1.4-2.9c-.1-1.2-1-1.9-2.6-2.2-1.1-.2-4-.1-8.7.4a119.59,119.59,0,0,1-14.9,1.1,11.76,11.76,0,0,1-7.5-2.8,10.52,10.52,0,0,1-3.6-7.4,15.45,15.45,0,0,1,2.3-9.6,21.74,21.74,0,0,1,7.9-7.4,44.43,44.43,0,0,1,13.9-4.5c6.2-1.1,10.7-1.4,13.7-1a16.5,16.5,0,0,1,7.6,2.8,18.45,18.45,0,0,1,5.2,5.8c.2.3,0,.6-.4.7-6.9,1.8-10.4,2.8-17.5,4.9h0a5.32,5.32,0,0,0-2.8-2.9,9.33,9.33,0,0,0-5.8-.3,9.77,9.77,0,0,0-4.8,2.2,3.76,3.76,0,0,0-1.3,3.1,2.54,2.54,0,0,0,2.2,2.3q2.1.45,8.7-.3c6.6-.8,11.5-.8,14.8-.2a13.8,13.8,0,0,1,7.7,3.5,10,10,0,0,1,3.3,6.2,11.32,11.32,0,0,1-1.7,7.2c-1.4,2.5-3.9,4.6-7.5,6.7s-8.7,3.9-15.4,5.9c-9.4,2.7-16.6,4.2-21,3.7-4.6-.9-4.7-4.2-6.3-8.1Z"/>
        <path class="cls-3" d="M264.55,134.84c-7,1.1-10.6,1.7-17.8,3.2a.49.49,0,0,1-.6-.3c-1.1-14.9-1.7-29.8-2.4-44.8,0-.2-.2-2.3.1-2.3,7.5-.8,11.1-1.1,18.5-1.8.3,0,.6.2.6.4-.4,4.2-.7,6.4-1.1,10.8,0,2.7,3.9,3.6,5.6,1.4,2.6-3.3,3.9-5,6.6-8.2a.52.52,0,0,1,.4-.2c8.5-.7,12.7-1,21.1-1.7.4,0,.7.4.4.7-5,6.3-7.5,9.6-12.4,16.1a4.74,4.74,0,0,0,.4,6.3c6.8,6.5,10.1,9.5,16.8,15.1.3.2.1.6-.3.6-7.5.8-11.2,1.2-18.8,2.2-.2,0-.3,0-.4-.1-4.7-3.5-7.1-5.4-11.9-9.4-1.9-1.6-5.3-.1-5.1,2.1.3,4,.5,5.9.9,9.4A.63.63,0,0,1,264.55,134.84Z"/>
        <path class="cls-3" d="M299.45,111.64a18.69,18.69,0,0,1,5.8-15.8c4.4-4.4,10.8-6.8,18.9-7.4,9.3-.7,16.3,1.1,21,5.3a18,18,0,0,1,6.1,12.9c.3,5.9-1.4,10.8-5.5,14.8s-10,6.3-18.2,7c-7.3.6-13.4-.2-18.2-2.7C303.45,122.74,300.15,118.14,299.45,111.64Zm17.8-1.8c.3,3.5,1.4,5.9,3.2,7.4a8,8,0,0,0,6.4,1.8,8.34,8.34,0,0,0,6-3c1.5-1.7,2-4.4,1.8-8-.3-3.4-1.3-5.8-3-7.3a8.42,8.42,0,0,0-6.3-2,8.88,8.88,0,0,0-6.2,3.1C317.55,103.84,317,106.54,317.25,109.84Z"/>
        <path class="cls-3" d="M374.85,123.14c-5.7.6-8.6.9-14.5,1.5a.37.37,0,0,1-.4-.4c-.2-14.1,0-28.1.2-42.2a.43.43,0,0,1,.4-.4c5.9-.1,8.9-.2,14.7-.2.3,0,.5.2.4.4-.2,3.9-.4,5.9-.6,9.9-.2,2.3,2.9,3.3,4.6,1.6,2.5-2.6,3.8-3.9,6.3-6.5a.37.37,0,0,1,.3-.1h18.2c.3,0,.5.3.3.5-5,5.5-7.5,8.4-12.1,14.3a3.64,3.64,0,0,0-.1,4.7c4.6,5.5,6.8,8.1,11.5,13.5.2.2,0,.6-.3.6-6.2.5-9.2.8-15.3,1.3a.37.37,0,0,1-.3-.1c-2.8-3.2-4.2-4.8-6.9-8.1a3,3,0,0,0-5.1,1.6c-.4,3-.6,4.6-.9,7.6C375.15,122.94,375.05,123.14,374.85,123.14Z"/>
        <path class="cls-3" d="M437.85,119.24a20.9,20.9,0,0,1-.1-2.5h0a1.78,1.78,0,0,0-2.6-.6,21.2,21.2,0,0,1-4.2,2.2,28.29,28.29,0,0,1-9.6,1.8c-4.7.2-8.2-.5-10.6-2.2a7.52,7.52,0,0,1-3.4-6.7,8.93,8.93,0,0,1,2.9-6.4c1.9-1.7,5.2-3,10.2-3.9,5.9-1.1,10-1.8,11.8-2.1.7-.2,1.1-.2,1.8-.4h0c8.6-1.1,3.3-4.1,3.3-4.1-.8-.6-2.2-.9-4.3-.9a14,14,0,0,0-6.1,1,6.28,6.28,0,0,0-2.8,2.8h0l-14.3-1c-.2,0-.4-.2-.3-.4a12.73,12.73,0,0,1,2.7-4.6,15.3,15.3,0,0,1,4.9-3.1,24.92,24.92,0,0,1,6.2-1.4,76.44,76.44,0,0,1,8.6-.4,118.12,118.12,0,0,1,12.1.7,17,17,0,0,1,7.5,2.5,7.9,7.9,0,0,1,2.9,3.6,8.85,8.85,0,0,1,.5,4.5,114.83,114.83,0,0,0-1.9,13.8c-.2,2.8-.3,4.2-.4,7.1h0C446.55,118.74,443.55,118.84,437.85,119.24Zm-7.6-14.4c-3.3.7-5.4,1.5-6.3,2.2a3.57,3.57,0,0,0-1.5,2.3,2.54,2.54,0,0,0,1.1,2.4,5.52,5.52,0,0,0,3.7.8,14.64,14.64,0,0,0,5-1.2c1.6-.7,3.2-1.5,3.5-2.6C437.05,104.24,430.25,104.84,430.25,104.84Z"/>
      </g>
    </g>
  </g>
</svg>
